<svg width="56" height="62" viewBox="0 0 56 62" fill="none" xmlns="http://www.w3.org/2000/svg">
<path d="M16.5631 4.84224V57.1578L9.73209 61.1175C5.4068 63.6249 0 60.4914 0 55.4773V6.52275C0 1.50904 5.4068 -1.62484 9.73209 0.882546L16.5631 4.84224Z" fill="url(#paint0_linear_38_7)"/>
<path d="M39.1329 17.9119V44.076L22.5698 53.6773V8.32324L39.1329 17.9119Z" fill="url(#paint1_linear_38_7)"/>
<path d="M51.9655 36.6348L45.1523 40.5822V21.4053L51.9655 25.3526C56.2922 27.8593 56.2922 34.1285 51.9655 36.6348Z" fill="url(#paint2_linear_38_7)"/>
<path d="M22.5696 8.32324V15.5049L16.563 19.9692V12.6971L22.5696 8.32324Z" fill="url(#paint3_linear_38_7)"/>
<path d="M45.1521 21.0566V28.2509L39.1328 32.7153V25.4301L44.8813 21.2507L45.1521 21.0566Z" fill="url(#paint4_linear_38_7)"/>
<defs>
<linearGradient id="paint0_linear_38_7" x1="-41.7305" y1="74.1429" x2="76.8133" y2="-28.8372" gradientUnits="userSpaceOnUse">
<stop stop-color="#4225A3"/>
<stop offset="1" stop-color="#C696D2"/>
</linearGradient>
<linearGradient id="paint1_linear_38_7" x1="-34.0323" y1="83.0046" x2="84.5115" y2="-19.9756" gradientUnits="userSpaceOnUse">
<stop stop-color="#4225A3"/>
<stop offset="1" stop-color="#C696D2"/>
</linearGradient>
<linearGradient id="paint2_linear_38_7" x1="-24.9494" y1="93.4598" x2="93.5944" y2="-9.52032" gradientUnits="userSpaceOnUse">
<stop stop-color="#4225A3"/>
<stop offset="1" stop-color="#C696D2"/>
</linearGradient>
<linearGradient id="paint3_linear_38_7" x1="16.563" y1="14.1462" x2="22.5696" y2="14.1462" gradientUnits="userSpaceOnUse">
<stop stop-color="#4225A3"/>
<stop offset="1" stop-color="#C696D2"/>
</linearGradient>
<linearGradient id="paint4_linear_38_7" x1="39.1328" y1="26.886" x2="45.1521" y2="26.886" gradientUnits="userSpaceOnUse">
<stop stop-color="#4225A3"/>
<stop offset="1" stop-color="#C696D2"/>
</linearGradient>
</defs>
</svg>
