<svg width="229" height="176" viewBox="0 0 229 176" fill="none" xmlns="http://www.w3.org/2000/svg">
<g clip-path="url(#clip0_1743_8679)">
<path d="M249.529 -10.1641H-29.5938V175.918H249.529V-10.1641Z" fill="white"/>
<path fill-rule="evenodd" clip-rule="evenodd" d="M117.954 17.7451C137.901 17.7451 159.217 37.8194 173.619 46.5032C192.678 57.993 201.878 60.7053 201.878 80.4243C201.878 115.047 159.345 127.585 112.995 127.585C66.6464 127.585 27.0966 108.385 40.8971 73.8584C54.6977 39.3318 71.6052 17.7451 117.954 17.7451Z" fill="#E9EFF8"/>
<path fill-rule="evenodd" clip-rule="evenodd" d="M33.5652 59.2309C36.1681 61.6857 37.3496 64.6269 37.1097 68.0546C30.9566 72.2454 27.7756 76.1711 27.5666 79.8319C34.7956 73.398 40.2269 73.4149 42.6719 77.3666C40.8675 79.5499 39.6055 87.0846 40.0408 90.5536C40.81 96.6785 39.1386 102.17 34.5147 104.241C33.4524 106.619 32.3374 107.872 31.1698 108.002C32.2885 114.86 33.2325 121.823 34.0016 128.89C33.2201 129.292 32.1013 129.249 31.5059 128.846C31.2656 126.091 31.0908 124.146 30.9126 122.844C30.4375 117.713 29.9033 112.751 29.3101 107.957C29.0236 107.925 28.7462 107.877 28.4586 107.816C23.0453 106.68 25.1204 103.305 20.1673 102.29C17.1223 101.667 14.348 99.0931 13.6589 96.7913C16.8313 95.791 20.8259 94.7241 24.8768 95.4831C22.7702 92.5249 18.4959 92.7471 12.6969 93.461C10.5057 89.2014 7.39639 89.5905 8.62566 82.9242C10.3421 73.6292 4.26458 71.059 6.30809 59.8704C9.29668 58.7426 13.2525 58.8753 18.1756 60.2685C16.0885 57.1784 12.1255 55.9002 6.28667 56.434C7.49902 53.1635 7.49 48.922 6.91258 47.1164C9.0794 45.5488 11.2714 45.5571 13.4886 47.1412C12.4969 45.4443 11.2146 44.4744 9.64178 44.2316C9.71697 42.776 10.3433 41.149 11.5206 39.3506C13.4642 39.3964 15.6171 39.8269 17.9794 40.6419C16.902 41.3516 16.5535 42.6279 16.9339 44.4707C18.2286 42.9482 20.1413 42.4399 22.672 42.9459C23.2055 49.5862 29.0913 52.2805 29.1905 55.1405C25.7253 58.1915 23.6953 61.5199 23.1006 65.1258C26.6305 62.0966 30.1187 60.1316 33.5652 59.2309Z" fill="#71AFED"/>
<path fill-rule="evenodd" clip-rule="evenodd" d="M33.9998 128.89C33.2329 121.822 32.2893 114.857 31.1691 107.994C27.17 82.0806 20.1914 55.3096 14.1172 44.1074C22.2228 63.2118 27.82 89.4584 30.9086 122.847C31.0867 124.15 31.2615 126.094 31.5018 128.849C32.0972 129.252 33.216 129.296 33.9998 128.89Z" fill="#AAB9DE"/>
<path fill-rule="evenodd" clip-rule="evenodd" d="M23.7195 42.5117C21.2076 45.7191 20.3775 49.2317 21.2294 53.0496C28.8704 56.7209 33.1183 60.5982 33.9732 64.6814C24.7412 58.667 18.6287 59.6065 16.5469 64.4739C18.9502 66.6257 21.6534 74.8945 21.7527 78.8733C21.9275 85.9016 24.7401 91.8066 30.3034 93.346C31.9033 95.8421 33.3717 97.0635 34.7085 97.0101C34.6152 104.928 34.7374 112.931 35.075 121.019C36.0235 121.339 37.2764 121.1 37.8786 120.546C37.6801 117.402 37.5459 115.184 37.5256 113.686C37.1881 107.829 36.9456 102.152 36.7982 96.6571C37.114 96.5714 37.4253 96.4703 37.732 96.3537C43.6314 94.1535 40.724 90.7036 46.1271 88.7187C49.4552 87.4928 52.1393 84.1231 52.525 81.4108C48.783 80.8243 44.1039 80.3022 39.6684 81.845C41.536 78.1572 46.3877 77.679 53.0404 77.4974C54.7839 72.3277 58.3544 72.2364 55.8316 64.9408C52.3152 54.774 58.7187 50.8437 54.5155 38.595C50.96 37.8349 46.529 38.6585 41.2225 41.0659C43.0487 37.2315 47.2936 35.1181 53.9573 34.7256C52.04 31.2431 51.325 26.4726 51.6679 24.34C48.9612 22.9438 46.4944 23.3261 44.2675 25.4869C45.0945 23.4066 46.3749 22.095 48.1086 21.5521C47.7748 19.9259 46.7952 18.2012 45.1697 16.3779C42.9893 16.7591 40.6387 17.6095 38.1177 18.9289C39.45 19.5447 40.0594 20.9225 39.9458 23.0622C38.2256 21.5683 35.9821 21.3217 33.2153 22.3224C33.7431 29.8897 27.5765 33.9226 27.9509 37.1605C32.3717 40.007 35.2227 43.4091 36.5039 47.3668C32.0169 44.5586 27.7554 42.9403 23.7195 42.5117Z" fill="#C5DEF8"/>
<path fill-rule="evenodd" clip-rule="evenodd" d="M35.0847 121.018C34.7463 112.928 34.6242 104.925 34.7181 97.0091C34.8095 67.1491 38.115 35.8208 43.0479 22.1748C37.1729 45.0625 35.3354 75.5661 37.5353 113.685C37.5556 115.183 37.6898 117.407 37.8883 120.545C37.2861 121.099 36.0331 121.338 35.0847 121.018Z" fill="#BCC9E7"/>
<path fill-rule="evenodd" clip-rule="evenodd" d="M31.6954 125.781C42.8129 125.781 51.8238 127.811 51.8238 130.31C51.8238 132.81 42.8129 134.838 31.6954 134.838C20.5778 134.838 11.5703 132.811 11.5703 130.31C11.5703 127.81 20.5801 125.781 31.6954 125.781Z" fill="#D0D9EE"/>
<path d="M41.9764 112.564H22.3949C21.5123 112.564 20.7969 113.28 20.7969 114.163V118.659C20.7969 119.542 21.5123 120.257 22.3949 120.257H41.9764C42.859 120.257 43.5744 119.542 43.5744 118.659V114.163C43.5744 113.28 42.859 112.564 41.9764 112.564Z" fill="#BCC9E7"/>
<path fill-rule="evenodd" clip-rule="evenodd" d="M41.7944 120.258H22.5625L24.4504 130.198H39.9053L41.7944 120.258Z" fill="#BCC9E7"/>
<path fill-rule="evenodd" clip-rule="evenodd" d="M22.5625 120.258H41.7944L41.4515 122.055H22.9031L22.5625 120.258Z" fill="#AAB9DE"/>
<path fill-rule="evenodd" clip-rule="evenodd" d="M150.398 140.999C117.369 140.999 90.5938 142.993 90.5938 145.451C90.5938 147.91 117.369 149.904 150.398 149.904C183.427 149.904 210.203 147.91 210.203 145.451C210.203 142.993 183.431 140.999 150.398 140.999Z" fill="#D0D9EE"/>
<path d="M179.004 63.0137H65.2422V125.4H179.004V63.0137Z" fill="#71AFED"/>
<path d="M178.272 65.2031H64.5078V74.6685H178.272V65.2031Z" fill="#BBDBFA"/>
<path fill-rule="evenodd" clip-rule="evenodd" d="M61.4453 68.5256H181.448L165.789 24.4873H75.5109L61.4453 68.5256Z" fill="#71AFED"/>
<path d="M181.448 68.3066H61.4453V70.9445H181.448V68.3066Z" fill="#BBDBFA"/>
<path d="M162.4 80.1875H139.414V113.039H162.4V80.1875Z" fill="#97C3EE"/>
<path d="M161.302 81.2109H155.352V96.102H161.302V81.2109Z" fill="#71AFED"/>
<path d="M153.973 81.2109H147.891V96.102H153.973V81.2109Z" fill="#71AFED"/>
<path d="M146.528 81.2109H140.461V96.102H146.528V81.2109Z" fill="#71AFED"/>
<path d="M161.302 97.1396H155.352V112.031H161.302V97.1396Z" fill="#71AFED"/>
<path d="M153.973 97.1396H147.891V112.031H153.973V97.1396Z" fill="#71AFED"/>
<path d="M146.528 97.1396H140.461V112.031H146.528V97.1396Z" fill="#71AFED"/>
<path fill-rule="evenodd" clip-rule="evenodd" d="M160.383 82.6793H155.352V81.2109H161.301V96.1009H160.383V82.6793Z" fill="#BBDBFA"/>
<path fill-rule="evenodd" clip-rule="evenodd" d="M153.054 82.6793H147.891V81.2109H153.974V96.1009H153.054V82.6793Z" fill="#BBDBFA"/>
<path fill-rule="evenodd" clip-rule="evenodd" d="M145.61 82.6793H140.461V81.2109H146.528V96.1009H145.61V82.6793Z" fill="#BBDBFA"/>
<path fill-rule="evenodd" clip-rule="evenodd" d="M160.383 98.608H155.352V97.1396H161.301V112.031H160.383V98.608Z" fill="#BBDBFA"/>
<path fill-rule="evenodd" clip-rule="evenodd" d="M153.054 98.608H147.891V97.1396H153.974V112.031H153.054V98.608Z" fill="#BBDBFA"/>
<path fill-rule="evenodd" clip-rule="evenodd" d="M145.61 98.608H140.461V97.1396H146.528V112.031H145.61V98.608Z" fill="#BBDBFA"/>
<path d="M166.17 70.8906H74.9766V78.2313H166.17V70.8906Z" fill="#71AFED"/>
<path d="M166.17 77.8643H74.9766V80.0657H166.17V77.8643Z" fill="#A4D0FC"/>
<path d="M132.752 80.1875H109.766V127.685H132.752V80.1875Z" fill="#97C3EE"/>
<path d="M131.661 81.2109H125.711V90.5714H131.661V81.2109Z" fill="#71AFED"/>
<path d="M124.339 81.2109H118.258V90.5714H124.339V81.2109Z" fill="#71AFED"/>
<path d="M116.896 81.2109H110.828V90.5714H116.896V81.2109Z" fill="#D0D9EE"/>
<path d="M131.661 91.6104H125.711V97.0135H131.661V91.6104Z" fill="#71AFED"/>
<path d="M124.339 91.6104H118.258V97.0135H124.339V91.6104Z" fill="#71AFED"/>
<path d="M116.896 91.6104H110.828V97.0135H116.896V91.6104Z" fill="#D0D9EE"/>
<path fill-rule="evenodd" clip-rule="evenodd" d="M130.743 82.6793H125.711V81.2109H131.661V90.5703H130.743V82.6793Z" fill="#BBDBFA"/>
<path fill-rule="evenodd" clip-rule="evenodd" d="M123.42 82.6793H118.258V81.2109H124.339V90.5703H123.42V82.6793Z" fill="#BBDBFA"/>
<path fill-rule="evenodd" clip-rule="evenodd" d="M115.978 82.6793H110.828V81.2109H116.896V90.5703H115.978V82.6793Z" fill="#BBDBFA"/>
<path fill-rule="evenodd" clip-rule="evenodd" d="M130.743 93.0779H125.711V91.6084H131.661V97.0115H130.743V93.0779Z" fill="#BBDBFA"/>
<path fill-rule="evenodd" clip-rule="evenodd" d="M123.42 93.0779H118.258V91.6084H124.339V97.0115H123.42V93.0779Z" fill="#BBDBFA"/>
<path fill-rule="evenodd" clip-rule="evenodd" d="M115.978 93.0779H110.828V91.6084H116.896V97.0115H115.978V93.0779Z" fill="#BBDBFA"/>
<path d="M131.661 98.1797H125.711V103.582H131.661V98.1797Z" fill="#71AFED"/>
<path d="M124.339 98.1797H118.258V103.582H124.339V98.1797Z" fill="#71AFED"/>
<path d="M116.896 98.1797H110.828V103.582H116.896V98.1797Z" fill="#D0D9EE"/>
<path fill-rule="evenodd" clip-rule="evenodd" d="M130.743 99.6503H125.711V98.1797H131.661V103.583H130.743V99.6503Z" fill="#BBDBFA"/>
<path fill-rule="evenodd" clip-rule="evenodd" d="M123.42 99.6503H118.258V98.1797H124.339V103.583H123.42V99.6503Z" fill="#BBDBFA"/>
<path fill-rule="evenodd" clip-rule="evenodd" d="M115.978 99.6503H110.828V98.1797H116.896V103.583H115.978V99.6503Z" fill="#BBDBFA"/>
<path d="M131.661 104.75H125.711V110.152H131.661V104.75Z" fill="#71AFED"/>
<path d="M124.339 104.75H118.258V110.152H124.339V104.75Z" fill="#71AFED"/>
<path d="M116.896 104.75H110.828V110.152H116.896V104.75Z" fill="#D0D9EE"/>
<path fill-rule="evenodd" clip-rule="evenodd" d="M130.743 106.219H125.711V104.75H131.661V110.152H130.743V106.219Z" fill="#BBDBFA"/>
<path fill-rule="evenodd" clip-rule="evenodd" d="M123.42 106.219H118.258V104.75H124.339V110.152H123.42V106.219Z" fill="#BBDBFA"/>
<path fill-rule="evenodd" clip-rule="evenodd" d="M115.978 106.219H110.828V104.75H116.896V110.152H115.978V106.219Z" fill="#BBDBFA"/>
<path d="M131.661 111.354H125.711V126.594H131.661V111.354Z" fill="#71AFED"/>
<path d="M124.339 111.354H118.258V126.594H124.339V111.354Z" fill="#71AFED"/>
<path d="M116.896 111.354H110.828V126.594H116.896V111.354Z" fill="#D0D9EE"/>
<path fill-rule="evenodd" clip-rule="evenodd" d="M130.743 112.824H125.711V111.354H131.661V126.593H130.743V112.824Z" fill="#BBDBFA"/>
<path fill-rule="evenodd" clip-rule="evenodd" d="M123.42 112.824H118.258V111.354H124.339V126.593H123.42V112.824Z" fill="#BBDBFA"/>
<path fill-rule="evenodd" clip-rule="evenodd" d="M115.978 112.824H110.828V111.354H116.896V126.593H115.978V112.824Z" fill="#BBDBFA"/>
<path d="M102.392 80.1875H79.4062V113.039H102.392V80.1875Z" fill="#97C3EE"/>
<path d="M101.294 81.2109H95.3438V96.102H101.294V81.2109Z" fill="#71AFED"/>
<path d="M93.9794 81.2109H87.8984V96.102H93.9794V81.2109Z" fill="#71AFED"/>
<path d="M86.5362 81.2109H80.4688V96.102H86.5362V81.2109Z" fill="#71AFED"/>
<path d="M101.294 97.1396H95.3438V112.031H101.294V97.1396Z" fill="#71AFED"/>
<path d="M93.9794 97.1396H87.8984V112.031H93.9794V97.1396Z" fill="#71AFED"/>
<path d="M86.5362 97.1396H80.4688V112.031H86.5362V97.1396Z" fill="#71AFED"/>
<path fill-rule="evenodd" clip-rule="evenodd" d="M100.376 82.6793H95.3438V81.2109H101.295V96.1009H100.376V82.6793Z" fill="#BBDBFA"/>
<path fill-rule="evenodd" clip-rule="evenodd" d="M93.0602 82.6793H87.8984V81.2109H93.9794V96.1009H93.0602V82.6793Z" fill="#BBDBFA"/>
<path fill-rule="evenodd" clip-rule="evenodd" d="M85.617 82.6793H80.4688V81.2109H86.5362V96.1009H85.617V82.6793Z" fill="#BBDBFA"/>
<path fill-rule="evenodd" clip-rule="evenodd" d="M100.376 98.608H95.3438V97.1396H101.295V112.031H100.376V98.608Z" fill="#BBDBFA"/>
<path fill-rule="evenodd" clip-rule="evenodd" d="M93.0602 98.608H87.8984V97.1396H93.9794V112.031H93.0602V98.608Z" fill="#BBDBFA"/>
<path fill-rule="evenodd" clip-rule="evenodd" d="M85.617 98.608H80.4688V97.1396H86.5362V112.031H85.617V98.608Z" fill="#BBDBFA"/>
<path d="M165.185 79.1562H162.648V128.422H165.185V79.1562Z" fill="white"/>
<path d="M137.372 78.7031H134.836V127.966H137.372V78.7031Z" fill="#A4D0FC"/>
<path d="M106.754 78.7031H104.219V127.966H106.754V78.7031Z" fill="#A4D0FC"/>
<path d="M78.5207 78.7031H75.9844V127.966H78.5207V78.7031Z" fill="#A4D0FC"/>
<path fill-rule="evenodd" clip-rule="evenodd" d="M137.967 125.971H139.829V115.919H137.967V125.976V125.971ZM140.508 125.971H142.371V115.919H140.508V125.976V125.971ZM143.048 125.971H144.911V115.919H143.048V125.976V125.971ZM145.587 125.971H147.45V115.919H145.587V125.976V125.971ZM148.128 125.971H149.992V115.919H148.128V125.976V125.971ZM150.669 125.971H152.538V115.919H150.675V125.976L150.669 125.971ZM153.209 125.971H155.073V115.919H153.214V125.976L153.209 125.971ZM155.75 125.971H157.613V115.919H155.75V125.976V125.971ZM158.29 125.971H160.152V115.919H158.289V125.976L158.29 125.971ZM160.83 125.971H162.688V115.919H160.826V125.976L160.83 125.971ZM163.311 113.644V127.431H137.172V113.644H163.311Z" fill="#A4D0FC"/>
<path fill-rule="evenodd" clip-rule="evenodd" d="M78.8799 125.971H80.743V115.919H78.8799V125.976V125.971ZM81.4196 125.971H83.2895V115.919H81.4196V125.976V125.971ZM83.9616 125.971H85.8247V115.919H83.9661V125.976L83.9616 125.971ZM86.5014 125.971H88.3644V115.919H86.5014V125.976V125.971ZM89.0411 125.971H90.9042V115.919H89.0411V125.976V125.971ZM91.582 125.971H93.4394V115.919H91.5774V125.976L91.582 125.971ZM94.1228 125.971H95.9848V115.919H94.1228V125.976V125.971ZM96.6626 125.971H98.5268V115.919H96.6626V125.976V125.971ZM99.2034 125.971H101.067V115.919H99.2034V125.976V125.971ZM101.744 125.971H103.606V115.919H101.744V125.976V125.971ZM104.225 113.644V127.431H78.0859V113.644H104.225Z" fill="#A4D0FC"/>
<path d="M181.38 127.589H59.7266V130.342H181.38V127.589Z" fill="#71AFED"/>
<path fill-rule="evenodd" clip-rule="evenodd" d="M142.875 85.1112C142.657 85.0357 141.925 84.8654 141.07 84.5789C140.194 84.9353 139.04 84.8297 137.607 84.262C137.061 83.3974 137.011 82.5174 137.457 81.6219C138.585 82.161 139.577 82.3685 140.433 82.2445C139.373 81.5452 139.209 81.1317 139.94 81.0039C140.035 81.1911 140.195 81.3364 140.391 81.411C141.129 81.5306 141.655 82.0302 141.97 82.9098C142.364 83.0158 142.771 83.1128 142.985 83.1782C142.774 83.6812 142.734 84.2902 142.875 85.1112Z" fill="#F4AE7C"/>
<path fill-rule="evenodd" clip-rule="evenodd" d="M162.965 62.9609C165.695 62.6079 167.758 62.7939 168.639 64.1055C168.469 65.1593 168.228 66.2003 167.918 67.2216C167.979 67.3593 168.077 67.477 168.202 67.5612C168.326 67.6454 168.472 67.6926 168.623 67.6975C169.012 66.9396 169.337 66.4885 169.598 66.3442C170.898 66.9269 170.654 67.8261 168.865 69.0418C168.761 69.4613 168.66 69.8079 168.562 70.0816C170.172 69.7218 171.518 68.2772 171.708 67.6591C173.585 63.9578 171.492 62.3947 170.371 61.8252C169.877 58.1599 164.556 61.4 161.889 59.6328C160.829 61.0933 162.138 62.9282 162.965 62.9609Z" fill="#0F3970"/>
<path fill-rule="evenodd" clip-rule="evenodd" d="M171.397 79.5684C169.682 81.6277 168.242 83.1156 167.078 84.0321C168.139 80.2676 169.275 76.2133 170.485 71.8691C170.869 72.1836 171.214 72.5429 171.513 72.9394C171.61 74.701 171.633 76.0449 171.584 76.9712C170.954 77.4685 170.45 77.7787 170.067 77.905C170.604 78.3774 171.055 78.9404 171.397 79.5684Z" fill="#0F3970"/>
<path fill-rule="evenodd" clip-rule="evenodd" d="M160.648 78.5661C161.432 80.3253 162.373 82.0103 163.46 83.6004C163.153 78.9991 162.998 75.1222 162.993 71.9697C162.597 72.1767 162.236 72.443 161.921 72.7592C161.872 72.8167 161.825 72.8719 161.78 72.9328C161.287 74.6944 160.968 76.0726 160.822 77.0672C161.283 77.2781 161.671 77.4608 161.989 77.6142C161.556 77.9014 161.109 78.2187 160.648 78.5661Z" fill="#0F3970"/>
<path fill-rule="evenodd" clip-rule="evenodd" d="M171.511 72.9395C174.157 74.4725 176.32 75.8318 178.002 77.0175C179.136 81.3406 179.751 86.0103 179.846 91.0266C179.691 96.7929 179.117 100.965 178.437 103.214C177.443 103.257 176.387 103.159 175.995 102.782C175.78 97.7068 175.726 93.59 175.832 90.4323C175.107 88.7654 174.468 87.52 173.915 86.696C173.674 88.4125 173.344 89.9011 173.264 91.4326C173.545 94.5746 173.682 98.3255 174.521 102.687C173.475 103.69 171.161 104.288 167.58 104.481C166.908 96.2219 166.739 89.4041 167.072 84.0277C168.236 83.1112 169.676 81.6233 171.392 79.564C171.049 78.936 170.598 78.373 170.061 77.9005C170.444 77.7742 170.949 77.4641 171.578 76.9667C171.629 76.0442 171.607 74.7018 171.511 72.9395Z" fill="#0F3D86"/>
<path fill-rule="evenodd" clip-rule="evenodd" d="M163.457 83.6009C162.431 94.5516 162.001 101.67 161.397 104.139C159.955 103.988 158.605 103.358 157.562 102.35C157.777 96.1214 158.504 92.1415 158.812 88.5C158.258 82.5228 157.12 77.0227 158.345 74.4683C159.655 73.5818 160.798 73.0683 161.776 72.9277C161.283 74.6878 160.964 76.0659 160.818 77.0621C161.28 77.273 161.668 77.4557 161.986 77.6091C161.554 77.9001 161.107 78.2192 160.645 78.5666C161.429 80.3259 162.37 82.0109 163.457 83.6009Z" fill="#0F3D86"/>
<path fill-rule="evenodd" clip-rule="evenodd" d="M156.789 76.2463C157.28 75.6448 157.797 75.052 158.34 74.4678C157.492 76.2384 157.776 79.4221 158.217 83.2012C157.363 84.2625 155.522 86.1549 153.945 87.3334C150.711 87.5195 147.245 86.7695 141.904 85.1534C141.689 84.5974 141.759 83.6749 141.974 82.9057C147.177 83.2057 150.355 83.155 152.442 83.6952C153.793 80.3243 155.507 78.3293 156.789 76.2463Z" fill="#0F3D86"/>
<path fill-rule="evenodd" clip-rule="evenodd" d="M167.109 74.6676C168.051 73.427 168.834 72.2993 169.691 71.6012C169.622 71.2827 169.537 70.968 169.435 70.6584C169.386 70.5242 169.097 70.3663 168.706 70.293C168.741 70.355 168.819 70.6166 168.754 70.6584C168.74 70.6685 168.724 70.682 168.709 70.6945C167.774 71.4605 166.749 72.1089 165.656 72.6252C166.22 73.2827 166.61 73.9684 167.109 74.6676Z" fill="#406FB5"/>
<path fill-rule="evenodd" clip-rule="evenodd" d="M163.404 71.9285C163.375 72.5884 163.394 73.2495 163.462 73.9066C163.652 73.3201 164.028 72.8116 164.534 72.4585C164.614 71.7819 164.667 71.1469 164.695 70.5537C164.129 70.7669 163.7 71.2247 163.404 71.9285Z" fill="#406FB5"/>
<path fill-rule="evenodd" clip-rule="evenodd" d="M162.273 97.0464C162.585 93.5886 162.95 89.0742 163.461 83.6022C163.16 79.0821 163.005 75.2601 162.994 72.1362C163.126 72.0867 163.261 72.0442 163.398 72.0087C163.373 72.6428 163.393 73.2779 163.459 73.909C163.649 73.3225 164.025 72.8141 164.53 72.461C164.693 72.7734 164.741 73.1128 165.002 73.4929C165.28 73.2031 165.545 72.929 165.718 72.7125C166.243 73.3429 166.62 74.0026 167.098 74.668C168.031 73.4455 168.807 72.3302 169.654 71.623C169.944 71.7734 170.204 71.9159 170.433 72.0505C169.24 76.327 168.121 80.3212 167.075 84.033C166.85 87.7366 166.859 92.1221 167.103 97.1896C166.675 97.2544 166.244 97.2966 165.812 97.3159V97.2719C165.812 97.2227 165.792 97.1758 165.757 97.1409C165.722 97.106 165.675 97.0859 165.626 97.0847L163.822 97.034C163.798 97.0327 163.774 97.0364 163.751 97.0447C163.728 97.0531 163.708 97.0659 163.69 97.0824C163.672 97.0989 163.658 97.1188 163.649 97.1409C163.639 97.163 163.634 97.1869 163.634 97.211V97.2437C163.188 97.1971 162.735 97.1313 162.273 97.0464Z" fill="#6998D0"/>
<path fill-rule="evenodd" clip-rule="evenodd" d="M163.889 74.4102C164.207 73.8937 164.579 73.5877 165.003 73.4922C165.317 73.6298 165.655 73.9497 166.018 74.4519C165.736 74.9384 165.437 75.2767 165.122 75.4669C165.716 79.1983 165.99 84.3943 165.944 91.0549C165.493 92.0466 165.053 92.7628 164.624 93.2033C164.127 92.4938 163.796 91.6811 163.656 90.826C164.067 83.8338 164.311 78.7329 164.389 75.5233C164.092 75.1368 163.925 74.7658 163.889 74.4102Z" fill="#ED7A15"/>
<path fill-rule="evenodd" clip-rule="evenodd" d="M166.017 73.0888C166.224 73.3685 166.414 73.6527 166.603 73.9369C166.431 74.0497 166.207 74.1872 165.937 74.3418C165.744 74.0707 165.511 73.8307 165.245 73.6301C165.508 73.435 165.766 73.2546 166.017 73.0888ZM164.307 72.6377C164.401 72.9726 164.537 73.2941 164.713 73.594C164.449 73.7315 164.223 73.9299 164.051 74.1726C163.937 73.9929 163.842 73.6888 163.766 73.2602C163.915 73.0282 164.097 72.8192 164.307 72.6399V72.6377Z" fill="#BE5538"/>
<path fill-rule="evenodd" clip-rule="evenodd" d="M158.096 123.522C158.072 117.917 158.26 111.321 158.66 103.733C159.413 104.184 160.377 104.522 161.613 104.793C161.911 104.003 162.177 102.147 162.583 98.7422C162.926 98.835 163.274 98.9103 163.625 98.9677V99.1606C163.626 99.2101 163.647 99.2572 163.682 99.2921C163.717 99.327 163.764 99.3469 163.813 99.3478L165.618 99.3986C165.642 99.3998 165.666 99.3961 165.688 99.3879C165.711 99.3796 165.731 99.3668 165.749 99.3504C165.766 99.3339 165.78 99.3141 165.789 99.2922C165.799 99.2702 165.804 99.2466 165.804 99.2226V99.0839C166.132 99.0692 166.463 99.0422 166.799 98.9982C166.986 101.862 167.059 103.778 167.206 105.178C170.176 104.807 171.963 104.485 173.397 103.885C174.133 109.53 174.54 115.62 174.619 122.155C175.834 124.763 176.167 131.134 175.616 141.267C174.58 141.497 173.406 141.497 172.094 141.267C171.058 136.709 170.156 130.71 169.387 123.272C168.311 119.711 167.196 114.706 166.042 108.257C165.808 112.631 165.181 117.579 164.162 123.101C164.507 127.179 163.91 133.168 162.372 141.067C161.565 141.143 160.293 141.028 158.556 140.723C158.739 134.293 158.586 128.559 158.096 123.522Z" fill="#0F3D86"/>
<path fill-rule="evenodd" clip-rule="evenodd" d="M167.206 105.177C167.059 103.776 166.98 101.86 166.799 98.9967C166.928 98.9809 167.057 98.9618 167.187 98.9415C167.29 100.712 167.419 102.56 167.575 104.487C170.153 104.348 172.075 103.998 173.34 103.439C173.36 103.587 173.379 103.734 173.397 103.883C171.963 104.483 170.176 104.806 167.206 105.177ZM161.61 104.795C160.369 104.53 159.41 104.184 158.656 103.734L158.683 103.227C159.509 103.724 160.432 104.035 161.39 104.139C161.646 103.1 161.868 101.236 162.118 98.6133C162.271 98.6629 162.423 98.7069 162.578 98.7486C162.179 102.149 161.908 104.011 161.61 104.795Z" fill="#142D4D"/>
<path fill-rule="evenodd" clip-rule="evenodd" d="M175.74 142.956C175.573 143.115 175.514 143.069 175.402 142.991C175.21 141.945 173.236 141.823 172.746 142.892C172.611 142.845 172.5 142.747 172.438 142.619C172.099 143.296 171.31 143.96 171.521 145.141C172.045 145.895 174.747 146.269 176.032 144.726C176.393 144.137 175.946 143.393 175.744 142.956H175.74ZM162.121 141.805C162.453 142.707 162.526 143.437 162.137 143.722C161.142 143.922 159.108 143.898 155.972 144.31C153.76 144.151 152.8 143.52 153.359 142.82C155.22 142.957 157.069 142.424 158.571 141.315C158.855 142.491 160.038 142.654 162.121 141.805Z" fill="#0F3970"/>
<path fill-rule="evenodd" clip-rule="evenodd" d="M175.534 141.278C175.587 141.905 175.64 142.478 175.692 142.996C175.559 143.109 175.503 143.064 175.397 142.996C175.206 141.949 173.232 141.828 172.741 142.897H172.732H172.706H172.699H172.693H172.685H172.675H172.668H172.662C172.748 142.476 172.823 142.001 172.888 141.47C173.804 141.592 174.734 141.565 175.642 141.39L175.534 141.278ZM158.922 140.775C158.855 141.031 158.752 141.276 158.617 141.503C158.628 141.533 158.641 141.564 158.653 141.593C158.706 141.717 158.779 141.832 158.87 141.931C158.898 141.964 158.929 141.994 158.961 142.022C158.97 142.03 158.98 142.039 158.99 142.046C159.106 142.137 159.238 142.207 159.378 142.251L159.418 142.262H159.426L159.466 142.272L159.512 142.282L159.557 142.291H159.563L159.607 142.299C159.771 142.322 159.936 142.329 160.1 142.319H160.108H160.16H160.17H160.223H160.234L160.287 142.314H160.298L160.356 142.306L160.417 142.298H160.431C160.578 142.275 160.734 142.245 160.899 142.203H160.917L160.98 142.186H160.989L161.052 142.169H161.071L161.129 142.154L161.149 142.147L161.207 142.13L161.231 142.122L161.29 142.105H161.307L161.372 142.085L161.389 142.078L161.456 142.057H161.47L161.538 142.033L161.556 142.026L161.624 142.004L161.71 141.973L161.872 141.911H161.884L161.97 141.877C161.966 141.619 161.979 141.36 162.008 141.104C161.28 141.108 160.25 140.999 158.918 140.775H158.922Z" fill="#F4AE7C"/>
<path fill-rule="evenodd" clip-rule="evenodd" d="M157.809 77.1592C157.742 78.8317 157.952 80.9068 158.219 83.2006C157.365 84.2619 155.524 86.1554 153.947 87.3328C150.713 87.5189 147.247 86.7689 141.906 85.1528C145.82 86.0341 149.806 86.5554 153.814 86.7103C154.635 86.1193 155.897 84.8728 157.6 82.9706C157.546 81.5203 157.616 79.5831 157.809 77.1592Z" fill="#142D4D"/>
<path fill-rule="evenodd" clip-rule="evenodd" d="M172.852 91.3078C173.037 88.9771 173.214 86.9712 173.38 85.29C173.502 85.7808 173.684 86.2546 173.922 86.7009C173.682 88.4173 173.351 89.906 173.271 91.4375C173.552 94.5795 173.689 98.3304 174.529 102.692C174.429 102.787 174.322 102.875 174.211 102.955C173.526 100.27 173.073 96.3873 172.852 91.3078Z" fill="#142D4D"/>
<path fill-rule="evenodd" clip-rule="evenodd" d="M167.191 98.9405C165.387 99.2247 163.698 99.1119 162.125 98.6021C162.172 98.1082 162.22 97.5872 162.269 97.0391C164.005 97.3616 165.614 97.4097 167.098 97.1834C167.128 97.7631 167.159 98.3484 167.191 98.9405Z" fill="#9D7558"/>
<path fill-rule="evenodd" clip-rule="evenodd" d="M165.631 97.088L163.827 97.0372C163.802 97.0363 163.778 97.0403 163.755 97.0491C163.733 97.0578 163.712 97.0711 163.695 97.0881C163.677 97.1051 163.664 97.1254 163.654 97.1479C163.645 97.1704 163.64 97.1945 163.641 97.2188V99.1574C163.641 99.2073 163.66 99.2553 163.695 99.2911C163.73 99.3269 163.777 99.3477 163.827 99.3492L165.631 99.3999C165.655 99.4008 165.68 99.3968 165.702 99.3881C165.725 99.3793 165.746 99.3661 165.763 99.3491C165.781 99.3321 165.794 99.3117 165.804 99.2893C165.813 99.2668 165.818 99.2427 165.817 99.2183V97.2775C165.816 97.2281 165.796 97.1811 165.762 97.1459C165.727 97.1107 165.68 97.09 165.631 97.088Z" fill="white"/>
<path fill-rule="evenodd" clip-rule="evenodd" d="M165.448 97.4314V99.0418L163.984 99.0001V97.3896L165.448 97.4314Z" fill="#9D7558"/>
<path fill-rule="evenodd" clip-rule="evenodd" d="M170.85 71.9915C170.781 71.9915 170.707 71.9983 170.624 71.9983L170.69 72.057L170.844 71.9915H170.85ZM170.444 71.9915C170.402 71.9915 170.36 71.9915 170.318 71.9837L170.43 72.0491L170.445 71.9915H170.444ZM168.786 70.6191C167.886 71.3651 166.902 72.0033 165.854 72.5205L165.64 72.6231L165.712 72.7099C165.561 72.896 165.34 73.1317 165.099 73.3866C165.024 73.3661 164.951 73.3393 164.881 73.3065C164.716 73.0009 164.655 72.7223 164.524 72.463C164.541 72.313 164.558 72.1641 164.573 72.0118C164.59 71.8359 164.646 71.2032 164.673 71.0296C164.584 71.0239 164.497 71.0172 164.413 71.0081C164.309 70.9946 164.187 70.9754 164.047 70.9484H164.042C162.94 70.7409 162.484 70.177 162.674 69.2567C162.229 67.3575 162.165 65.7087 162.65 65.2633C162.729 64.4513 162.834 63.6844 162.96 62.9547C165.69 62.6017 167.753 62.7878 168.634 64.0994C168.464 65.153 168.223 66.1941 167.913 67.2154C167.974 67.3531 168.072 67.4709 168.197 67.5551C168.322 67.6393 168.468 67.6865 168.618 67.6914C169.008 66.9335 169.333 66.4824 169.594 66.338C170.894 66.9207 170.649 67.8199 168.861 69.0357C168.756 69.4552 168.655 69.8018 168.557 70.0755C168.619 70.2628 168.696 70.4449 168.786 70.6202V70.6191Z" fill="#F4AE7C"/>
<path fill-rule="evenodd" clip-rule="evenodd" d="M164.681 71.036C165.229 71.0769 165.78 71.0603 166.325 70.9863C165.796 71.3475 165.215 71.6249 164.602 71.8085C164.612 71.6957 164.623 71.5829 164.633 71.4701C164.65 71.2852 164.67 71.1104 164.681 71.036Z" fill="#ED7D5B"/>
<path fill-rule="evenodd" clip-rule="evenodd" d="M168.578 107.717L169.318 124.92L188.086 122.944L185.862 107.717H168.578Z" fill="#E3BB9B"/>
<path fill-rule="evenodd" clip-rule="evenodd" d="M166.203 122.8C167.41 123.228 168.487 123.958 169.332 124.92L168.592 107.717L167.748 107.695L166.203 122.8Z" fill="#9D7558"/>
<path fill-rule="evenodd" clip-rule="evenodd" d="M168.578 107.717L170.759 114.618C171.074 115.383 171.395 116.052 172.667 115.947L184.712 115.184C185.785 115.115 185.81 114.573 185.819 113.837V107.717H168.578Z" fill="#9D7558"/>
<path fill-rule="evenodd" clip-rule="evenodd" d="M177.275 114.721L180.337 114.525C180.421 114.517 180.504 114.541 180.571 114.592C180.638 114.642 180.684 114.716 180.7 114.799L181.117 117.519C181.125 117.558 181.124 117.597 181.116 117.636C181.107 117.674 181.091 117.71 181.068 117.742C181.045 117.774 181.016 117.8 180.982 117.82C180.948 117.84 180.91 117.853 180.871 117.857L177.684 118.18C177.6 118.188 177.516 118.163 177.449 118.112C177.382 118.061 177.336 117.987 177.321 117.904L177.029 115.059C177.021 115.021 177.022 114.981 177.03 114.943C177.038 114.904 177.055 114.868 177.078 114.836C177.101 114.805 177.13 114.778 177.164 114.758C177.198 114.738 177.236 114.726 177.275 114.721Z" fill="white"/>
<path fill-rule="evenodd" clip-rule="evenodd" d="M177.844 115.453L178.041 117.373L180.287 117.146L180.006 115.313L177.844 115.453Z" fill="#9D7558"/>
<path fill-rule="evenodd" clip-rule="evenodd" d="M172.188 107.715C172.376 107.048 172.815 106.492 173.409 106.056C173.673 105.864 173.957 105.699 174.255 105.565C174.435 105.096 175.523 104.7 176.849 104.649C178.256 104.595 179.424 104.948 179.541 105.446C179.627 105.484 179.715 105.525 179.8 105.569C180.684 106.02 181.345 106.73 181.559 107.712H180.911C180.703 106.99 180.19 106.464 179.517 106.119C179.427 106.072 179.333 106.029 179.237 105.989C178.795 106.305 177.928 106.539 176.923 106.578C175.871 106.618 174.952 106.431 174.507 106.126C174.248 106.244 174.001 106.388 173.771 106.555C173.357 106.842 173.036 107.245 172.848 107.712L172.188 107.715Z" fill="#9D7558"/>
<path fill-rule="evenodd" clip-rule="evenodd" d="M175.262 105.421C175.251 105.835 175.103 106.46 175.366 106.757C176.059 107.538 177.751 107.592 178.479 107.096C178.791 106.88 178.827 106.177 178.836 105.726C178.487 104.881 178.281 103.984 178.23 103.072C177.489 102.579 176.369 102.533 175.997 102.789L175.262 105.421Z" fill="#F4AE7C"/>
<path fill-rule="evenodd" clip-rule="evenodd" d="M104.416 62.563C93.9711 51.3248 76.3937 50.682 65.1554 61.1285C55.0123 70.5566 53.5033 85.7928 60.9827 96.9352L60.8282 97.0863C60.5219 97.3712 60.3412 97.766 60.3258 98.1841C60.3103 98.6021 60.4614 99.0092 60.7459 99.3159L64.5803 103.441C64.7221 103.593 64.8925 103.716 65.0818 103.802C65.271 103.888 65.4754 103.936 65.6832 103.942C65.891 103.949 66.0981 103.915 66.2926 103.842C66.4871 103.768 66.6652 103.657 66.8166 103.515L66.9745 103.369C77.5305 111.646 92.8411 111.251 102.983 101.823C114.221 91.3764 114.863 73.799 104.416 62.5619V62.563ZM101.577 65.2031C110.564 74.8715 110.01 89.996 100.343 98.9832C90.6757 107.97 75.5501 107.419 66.5618 97.7494C57.5734 88.0799 58.126 72.9565 67.8023 63.9693C77.4786 54.9821 92.5896 55.5336 101.577 65.2031Z" fill="#F4B545"/>
<path d="M60.7579 99.3053L50.375 108.957L54.2096 113.082L64.5925 103.43L60.7579 99.3053Z" fill="#D1A383"/>
<path fill-rule="evenodd" clip-rule="evenodd" d="M54.2011 113.087L50.3667 108.961C50.0816 108.655 49.6867 108.474 49.2687 108.459C48.8507 108.444 48.4437 108.595 48.1371 108.88L22.018 133.158C21.7122 133.443 21.5319 133.838 21.5167 134.256C21.5015 134.674 21.6525 135.08 21.9368 135.387L25.7712 139.513C26.0562 139.819 26.4509 139.999 26.8686 140.015C27.2864 140.03 27.6931 139.879 27.9996 139.595L54.1199 115.316C54.4257 115.031 54.606 114.636 54.6212 114.218C54.6364 113.801 54.4854 113.394 54.2011 113.087Z" fill="#F4B545"/>
<path fill-rule="evenodd" clip-rule="evenodd" d="M202.753 136.954L201.43 142.525L199.448 142.513L199.375 136.954H202.753Z" fill="#F4AE7C"/>
<path fill-rule="evenodd" clip-rule="evenodd" d="M186.098 137.19L182.334 142.525L180.867 140.64L183.132 136.456L186.098 137.19Z" fill="#F4AE7C"/>
<path fill-rule="evenodd" clip-rule="evenodd" d="M199.617 67.3895C200.365 67.1448 201.178 67.2643 201.732 67.4109C201.629 67.2831 201.495 67.1834 201.343 67.1211C201.704 67.1403 202.411 67.6421 202.411 67.6421C207.636 66.7501 206.959 74.0422 206.524 75.6797C206.088 77.3173 207.709 78.2093 209.967 80.025C214.277 83.4873 214.027 86.9123 214.027 86.9123C213.982 86.9265 213.937 86.9431 213.894 86.9619C213.737 86.5108 213.399 85.6515 213.007 85.453C213.015 85.4947 213.286 86.5999 213.346 87.2112C211.708 88.0063 208.568 89.8637 206.376 91.1877C206.452 90.8573 206.533 90.3836 206.462 90.1107L205.956 91.4482C204.781 92.1587 203.97 92.6617 203.97 92.6617C204.363 91.3467 199.605 83.026 196.805 80.2562C196.253 78.9413 196.385 76.8436 196.397 76.6778C196.206 78.3244 196.3 79.2886 196.445 79.8502C194.219 76.7804 197.64 68.0414 199.617 67.3895Z" fill="#0F3970"/>
<path fill-rule="evenodd" clip-rule="evenodd" d="M197.547 80.806C197.53 80.8128 199.137 81.6462 200.344 81.3169C201.48 81.0056 202.222 79.5328 202.206 79.5305C201.725 79.4335 201.586 78.7738 201.597 75.9307L201.379 75.9758L197.723 76.6998C197.723 76.6998 197.805 77.8501 197.809 78.935C197.811 79.844 197.756 80.7068 197.547 80.806Z" fill="#F4AE7C"/>
<path fill-rule="evenodd" clip-rule="evenodd" d="M203.422 69.3741C203.422 69.3741 202.033 67.1343 199.453 68.4719C199.451 68.4719 200.791 68.5091 203.422 69.3741Z" fill="#5EABB8"/>
<path fill-rule="evenodd" clip-rule="evenodd" d="M197.727 76.6996C197.727 76.6996 197.809 77.8499 197.812 78.9349C199.858 78.8762 200.94 77.0086 201.383 75.9756L197.727 76.6996Z" fill="#F0A460"/>
<path fill-rule="evenodd" clip-rule="evenodd" d="M202.128 76.1112C202.128 76.1112 203.515 74.6598 204.052 73.2918C204.437 72.3129 204.679 68.4514 200.794 68.2304C200.012 68.1828 199.229 68.3115 198.504 68.607C197.571 68.995 196.146 69.9513 196.812 73.497L196.931 74.6756L202.128 76.1112Z" fill="#0F3970"/>
<path fill-rule="evenodd" clip-rule="evenodd" d="M181.211 139.422C181.211 139.422 182.183 139.589 182.98 139.647C183.16 139.661 183.327 139.67 183.474 139.67C183.858 139.67 184.55 139.523 185.016 139.416L185.05 139.409C185.254 139.36 185.411 139.321 185.468 139.306L185.492 139.299C185.492 139.299 190.341 133.904 193.057 125.254C193.122 125.053 193.189 124.85 193.258 124.645C194.745 120.305 197.831 114.86 199.461 109.931C199.719 109.148 199.952 108.409 200.161 107.709C200.227 107.483 200.293 107.264 200.354 107.048C201.553 102.886 201.898 100.154 202.218 97.2363L192.446 99.7174C192.446 99.7174 188.337 117.509 181.211 139.422Z" fill="#0F3D86"/>
<path fill-rule="evenodd" clip-rule="evenodd" d="M197.088 77.2783C197.088 77.2783 201.817 78.3114 202.417 75.3555C203.017 72.3996 204.029 70.5444 201.035 69.7584C198.041 68.9723 197.223 69.9839 196.782 70.9177C196.341 71.8515 195.872 76.931 197.088 77.2783Z" fill="#F4AE7C"/>
<path fill-rule="evenodd" clip-rule="evenodd" d="M198.891 69.2494C198.891 69.2494 199.492 72.9801 201.382 73.8959C203.272 74.8116 204.245 74.4507 204.245 74.4507C203.436 73.3873 203.02 72.0759 203.07 70.7404C203.07 70.7404 200.203 67.7969 198.891 69.2494Z" fill="#0F3970"/>
<path fill-rule="evenodd" clip-rule="evenodd" d="M199.151 69.5967C199.151 69.5967 198.023 70.1753 197.636 70.8813C197.249 71.5873 196.829 73.1143 196.388 72.9699C196.388 72.9699 195.883 70.4155 197.253 69.3047C198.706 68.125 199.151 69.5967 199.151 69.5967Z" fill="#0F3970"/>
<path fill-rule="evenodd" clip-rule="evenodd" d="M201.504 142.213C201.422 142.983 201.508 143.763 201.757 144.497C201.757 144.497 202.08 145.974 200.629 146.001C199.178 146.028 198.817 145.888 198.982 144.986C199.148 144.084 199.461 142.512 199.461 142.512L201.504 142.213Z" fill="#F6B678"/>
<path fill-rule="evenodd" clip-rule="evenodd" d="M201.746 144.497C201.746 144.497 202.015 145.893 201.85 146.634C201.85 146.634 201.411 146.964 200.354 146.964C199.351 146.964 198.829 146.634 198.829 146.634C198.829 146.634 198.799 145.104 199.066 144.457C199.066 144.453 200.099 146.008 201.746 144.497Z" fill="#0F3970"/>
<path fill-rule="evenodd" clip-rule="evenodd" d="M177.361 145.13C177.361 145.13 180.045 142.152 180.868 140.637L182.863 141.66L178.404 145.847L177.359 145.711L177.361 145.13Z" fill="#F6B678"/>
<path fill-rule="evenodd" clip-rule="evenodd" d="M175.641 146.88C175.641 146.88 178.524 146.88 179.024 146.825C179.524 146.769 179.917 146.056 180.452 144.984C180.677 144.547 181.162 144.308 181.666 144.172V146.653H182.429L183.148 144.018C183.625 143.146 183.188 142.353 182.853 141.664C182.464 141.664 181.417 141.929 179.436 144.161C178.785 144.896 178.064 145.159 177.35 145.134L177.321 145.151C175.664 145.892 175.641 146.88 175.641 146.88Z" fill="#0F3970"/>
<path fill-rule="evenodd" clip-rule="evenodd" d="M182.984 139.649C183.164 139.663 183.331 139.672 183.478 139.672C183.862 139.672 184.554 139.525 185.02 139.418L185.054 139.411L185.472 139.307L185.496 139.301C185.496 139.301 190.345 133.905 193.061 125.255C193.126 125.055 193.193 124.852 193.262 124.646C194.749 120.307 197.835 114.862 199.464 109.932C199.723 109.15 199.956 108.411 200.165 107.711C200.231 107.485 200.297 107.266 200.358 107.05L198.629 105.739C198.629 105.739 193.441 114.141 191.835 122.047C190.496 128.601 184.764 137.1 182.984 139.649Z" fill="#0F3970"/>
<path fill-rule="evenodd" clip-rule="evenodd" d="M198.439 122.786C198.411 126.63 198.605 135.471 199.106 139.132C199.106 139.132 199.581 139.552 200.758 139.557C201.964 139.557 202.504 139.117 202.504 139.117C203.76 132.752 204.655 127.487 205.304 122.951C205.84 119.229 206.319 116.033 206.679 113.286C207.001 110.851 207.243 108.765 207.356 106.97C207.37 106.726 207.385 106.486 207.396 106.254C207.41 105.945 207.421 105.645 207.427 105.352C207.432 105.059 207.433 104.775 207.427 104.498H207.386L204.958 104.261L197.289 103.514C197.418 110.246 198.456 120.551 198.439 122.786Z" fill="#0F3D86"/>
<path fill-rule="evenodd" clip-rule="evenodd" d="M200.758 139.557C201.371 139.593 201.981 139.439 202.504 139.117C203.76 132.752 204.654 127.486 205.304 122.95C205.84 119.229 206.319 116.033 206.679 113.285C207.001 110.851 207.243 108.764 207.355 106.97C207.37 106.085 207.379 105.233 207.389 104.498C207.399 103.762 207.412 103.12 207.432 102.679L204.961 104.258L202.36 105.921C202.36 105.921 206.049 109.275 205.143 115.62C204.236 121.965 202.02 138.658 200.758 139.557Z" fill="#0F3970"/>
<path fill-rule="evenodd" clip-rule="evenodd" d="M198.743 79.407C198.743 79.407 194.795 78.7822 193.477 80.0983C191.856 81.711 188.812 90.9599 188.933 92.0143C188.981 92.4192 190.58 92.232 191.128 91.6557C193.863 88.7878 197.782 81.552 198.743 79.407Z" fill="#6998D0"/>
<path fill-rule="evenodd" clip-rule="evenodd" d="M191.091 105.229C194.035 105.995 207.764 107.505 207.884 104.066C207.913 103.227 207.884 102.213 207.817 101.117C207.613 97.7205 207.055 93.5218 206.787 91.2121C206.664 90.1531 207.073 85.4108 206.76 82.826C206.725 82.4919 206.661 82.1613 206.57 81.8381C205.978 79.8882 203.312 79.357 201.946 79.3119L197.818 79.1709C197.818 79.1709 193.555 83.9335 192.961 85.3973C192.367 86.8612 192.171 91.8685 191.714 94.2932C191.256 96.7179 189.66 104.859 191.091 105.229Z" fill="#6998D0"/>
<path fill-rule="evenodd" clip-rule="evenodd" d="M199.192 93.6077C199.192 93.6077 201.488 100.655 207.809 101.117C207.605 97.7206 207.047 93.5219 206.78 91.2123C206.657 90.1533 207.065 85.411 206.753 82.8262C206.67 82.842 206.596 82.8882 206.509 82.9062C199.552 84.2505 198.56 92.137 199.192 93.6077Z" fill="#406FB5"/>
<path fill-rule="evenodd" clip-rule="evenodd" d="M189.141 92.1895C189.141 92.1895 193.285 93.5428 198.333 91.3685C198.333 91.3685 199.709 91.2388 200.391 91.4124C200.391 91.4124 200.246 90.0501 199.578 89.6768C198.911 89.3035 196.039 90.1076 195.18 89.9915C193.305 89.7321 190.038 89.5313 189.141 92.1895Z" fill="#F0A460"/>
<path fill-rule="evenodd" clip-rule="evenodd" d="M192.838 89.0139C192.838 89.0139 192.45 85.6475 193.767 83.6175C193.767 83.6175 193.302 83.4574 192.966 83.9863C192.63 84.5152 190.306 89.5124 191.414 89.8834C192.523 90.2544 192.838 89.0139 192.838 89.0139Z" fill="#406FB5"/>
<path fill-rule="evenodd" clip-rule="evenodd" d="M198.875 89.5771C198.935 89.5771 200.833 89.8241 201.169 90.061C201.505 90.2978 201.207 91.1278 200.576 91.2079C199.944 91.288 198.875 89.5771 198.875 89.5771Z" fill="#F0A460"/>
<path fill-rule="evenodd" clip-rule="evenodd" d="M204.068 90.854C204.068 90.854 198.663 90.6555 193.76 89.707C193.76 89.707 192.858 89.7149 192.971 90.4965C193.083 91.278 201.468 95.6605 203.313 94.8158L204.068 90.854Z" fill="#F4AE7C"/>
<path fill-rule="evenodd" clip-rule="evenodd" d="M193.754 89.7061C193.754 89.7061 193.18 89.0137 192.825 89.0137C192.469 89.0137 191.54 89.4648 191.401 89.8832C191.263 90.3016 192.501 89.996 192.963 90.4978C193.426 90.9997 193.754 89.7061 193.754 89.7061Z" fill="#F6B678"/>
<path fill-rule="evenodd" clip-rule="evenodd" d="M201.94 79.3125C201.94 79.3125 206.483 79.3249 207.147 80.9557C208.36 83.9341 204.362 93.8122 203.312 94.8182C202.861 95.249 200.758 94.5701 200.758 91.7225C200.753 90.2485 200.859 81.6233 201.94 79.3125Z" fill="#6998D0"/>
<path fill-rule="evenodd" clip-rule="evenodd" d="M103.579 145.588C102.024 145.04 101.899 144.235 101.059 143.846C100.22 143.457 100.118 142.75 100.947 141.986C101.556 142.475 102.312 143.073 102.713 142.757C102.981 142.545 103.889 142.558 104.066 142.869C104.856 144.707 105.956 144.125 106.174 144.96C106.195 146.072 104.291 145.84 103.579 145.588Z" fill="#0F3970"/>
<path fill-rule="evenodd" clip-rule="evenodd" d="M116.957 145.643C114.083 145.598 111.937 145.563 110.944 145.249C109.874 144.911 110.095 144.259 110.71 143.219C113.417 144.46 112.697 142.962 113.962 143.154C114.852 143.871 116.168 144.351 117.91 144.594C118.654 145.13 118.354 145.619 116.957 145.643Z" fill="#0F3970"/>
<path fill-rule="evenodd" clip-rule="evenodd" d="M107.031 75.9265C107.49 75.9593 108.214 75.8713 108.342 75.7089C108.83 75.0897 109.168 74.4424 109.292 74.0342C109.198 73.7635 109.097 73.4206 108.995 73.0067C107.226 71.8038 106.985 70.9159 108.27 70.343C108.527 70.4873 108.849 70.9343 109.234 71.6839C109.382 71.6791 109.527 71.6324 109.65 71.5492C109.773 71.466 109.871 71.3497 109.931 71.2136C109.623 70.2045 109.386 69.1754 109.219 68.1337C110.09 66.839 112.125 66.6552 114.823 67.0059C114.949 67.7247 115.052 68.4851 115.132 69.2874C115.608 69.7261 115.547 71.3557 115.107 73.2346C115.328 74.3022 114.668 74.8849 113.129 74.9826C113.11 75.2816 113.122 75.5817 113.166 75.8781C113.206 75.9604 113.342 76.0393 113.532 76.1036C113.584 77.8637 111.417 77.8047 107.031 75.9265Z" fill="#F4AE7C"/>
<path fill-rule="evenodd" clip-rule="evenodd" d="M114.81 67.0042C112.113 66.6557 110.074 66.8395 109.206 68.1319C109.373 69.1737 109.611 70.2027 109.918 71.2119C109.858 71.348 109.761 71.4643 109.637 71.5475C109.514 71.6307 109.37 71.6774 109.221 71.6822C108.838 70.9303 108.516 70.4834 108.257 70.3413C106.973 70.9164 107.215 71.8043 108.982 73.005C109.085 73.4189 109.185 73.7618 109.28 74.0324C107.691 73.6772 106.359 72.2551 106.173 71.6393C104.318 67.9831 106.387 66.438 107.494 65.8753C107.982 62.2551 113.239 65.4546 115.874 63.71C116.921 65.158 115.627 66.976 114.81 67.0042Z" fill="#0F3970"/>
<path fill-rule="evenodd" clip-rule="evenodd" d="M131.001 82.3393C129.666 88.0534 127.321 92.4893 123.966 95.647C122.758 95.2809 121.686 94.4538 120.749 93.1659C120.799 97.3011 120.696 101.416 120.44 105.509C117.991 106.669 114.741 106.594 110.688 105.284L109.044 103.254C108.622 103.172 107.662 103.638 107.203 104.35C103.353 101.412 100.758 98.2601 99.2266 95.1181C99.6416 88.3801 100.557 83.0634 101.973 79.1681C102.688 78.0666 104.371 76.9836 107.022 75.9189C111.407 77.7986 113.574 77.8568 113.522 76.0937C114.812 76.5178 116.523 77.267 118.656 78.3414C120.433 79.6947 121.947 83.3555 123.198 89.3236C125.237 86.7771 127.346 84.0761 129.526 81.2206C130.012 81.3582 130.501 81.7311 130.992 82.3393H131.001ZM108.157 101.435C109.436 97.2387 108.731 92.0618 106.045 85.9042C105.368 88.9424 104.638 91.9325 103.854 94.8745C104.767 95.3091 106.201 97.4958 108.157 101.435Z" fill="#6998D0"/>
<path fill-rule="evenodd" clip-rule="evenodd" d="M107.677 106.904C108.299 106.855 109.301 106.316 110.684 105.286C114.737 106.596 117.988 106.671 120.436 105.511C120.871 112.403 119.177 119.631 117.027 127.686C114.921 131.221 115.01 133.707 113.888 141.867C113.265 142.311 112.236 142.246 110.799 141.673C110.348 134.717 110.659 130.11 112.465 127.515C112.182 125.182 112.916 119.448 112.955 115.848C111.643 118.78 110.74 122.728 109.03 126.724C106.945 131.587 105.495 136.793 104.396 141.54C103.291 141.774 102.14 141.634 101.125 141.141C102.293 133.337 103.587 127.967 105.006 125.029C104.953 117.361 105.684 110.47 107.198 104.357C107.499 105.174 107.661 106.034 107.677 106.904Z" fill="#0F3970"/>
<path fill-rule="evenodd" clip-rule="evenodd" d="M110.688 105.285C109.305 106.315 108.303 106.855 107.681 106.903C107.665 106.034 107.503 105.173 107.203 104.357C107.662 103.645 108.622 103.178 109.044 103.26L110.688 105.285Z" fill="#F4AE7C"/>
<path fill-rule="evenodd" clip-rule="evenodd" d="M120.747 93.1677C120.612 89.1521 120.29 85.8605 119.781 83.293C121.08 88.7454 122.338 92.3644 123.556 94.15C124.327 94.1237 125.304 93.6669 126.488 92.7798C125.74 93.8118 124.897 94.7713 123.97 95.6454C122.759 95.2793 121.684 94.4534 120.747 93.1677Z" fill="#406FB5"/>
<path fill-rule="evenodd" clip-rule="evenodd" d="M109.046 103.262C108.789 102.635 108.493 102.025 108.159 101.436C109.437 97.2397 108.733 92.0629 106.047 85.9053C109.951 91.4577 111.059 97.3758 109.369 103.66L109.046 103.262Z" fill="#406FB5"/>
<path fill-rule="evenodd" clip-rule="evenodd" d="M111.344 74.6064C111.775 74.8196 112.367 74.9448 113.115 74.9786C113.103 75.2211 113.108 75.4641 113.129 75.706C112.413 75.5864 111.773 75.1918 111.344 74.6064Z" fill="#ED7D5B"/>
<path fill-rule="evenodd" clip-rule="evenodd" d="M110.966 143.335C111.113 142.838 111.168 142.318 111.129 141.801C112.225 142.193 113.061 142.262 113.637 142.007C113.605 142.389 113.652 142.773 113.777 143.135C112.78 143.099 113.234 144.308 110.966 143.337V143.335ZM103.724 142.659C103.386 142.569 102.892 142.607 102.709 142.754C102.352 143.037 101.709 142.588 101.141 142.141C101.244 141.853 101.325 141.557 101.383 141.256C102.062 141.542 102.796 141.673 103.533 141.64C103.51 141.991 103.576 142.342 103.724 142.661V142.659Z" fill="#F4AE7C"/>
<path fill-rule="evenodd" clip-rule="evenodd" d="M107.633 107.883C107.675 107.559 107.689 107.231 107.675 106.904C108.296 106.856 109.299 106.316 110.681 105.286C111.009 105.392 111.333 105.491 111.651 105.58C110.678 106.593 109.339 107.361 107.633 107.883Z" fill="#0F3D86"/>
<path fill-rule="evenodd" clip-rule="evenodd" d="M130.996 82.3411C131.077 82.1381 131.407 81.5031 131.729 80.7081C132.532 80.2968 133.171 79.3972 133.647 78.0093C133.36 77.0793 132.756 76.4977 131.833 76.2646C131.52 77.4135 131.054 78.2586 130.437 78.7999C130.587 77.5969 130.39 77.221 129.844 77.6721C129.92 77.8575 129.924 78.0647 129.855 78.2529C129.485 78.8608 129.517 79.551 129.955 80.3257C129.787 80.6754 129.606 81.0306 129.523 81.228C130.024 81.3825 130.49 81.7298 130.996 82.3411Z" fill="#F4AE7C"/>
<path fill-rule="evenodd" clip-rule="evenodd" d="M80.0807 15.8506L67.2422 21.1139L70.7687 25.6159L80.0807 15.8506Z" fill="#D0D9EE"/>
<path fill-rule="evenodd" clip-rule="evenodd" d="M65.4213 18.9925L79.6785 15.8799L61.9297 17.1768L65.4213 18.9925Z" fill="#D0D9EE"/>
<path fill-rule="evenodd" clip-rule="evenodd" d="M65.4297 18.9914L65.7624 24.9032L67.2398 21.1139L80.0783 15.8506L79.687 15.8788L65.4297 18.9914Z" fill="#AAB9DE"/>
<path fill-rule="evenodd" clip-rule="evenodd" d="M65.7578 24.9045L68.7983 23.1103L67.2352 21.1152L65.7578 24.9045Z" fill="#8D9FCA"/>
<path fill-rule="evenodd" clip-rule="evenodd" d="M185.258 31.1338L198.773 41.8544L193.008 46.0147L185.258 31.1338Z" fill="#D0D9EE"/>
<path fill-rule="evenodd" clip-rule="evenodd" d="M201.67 39.9468L185.719 31.3047L206.466 38.9837L201.67 39.9468Z" fill="#D0D9EE"/>
<path fill-rule="evenodd" clip-rule="evenodd" d="M201.669 39.9462L199.23 46.8899L198.773 41.8544L185.258 31.1338L185.718 31.3041L201.669 39.9462Z" fill="#AAB9DE"/>
<path fill-rule="evenodd" clip-rule="evenodd" d="M199.238 46.89L196.227 43.6973L198.781 41.8545L199.238 46.89Z" fill="#8D9FCA"/>
<path fill-rule="evenodd" clip-rule="evenodd" d="M62.4605 24.4656C62.8789 24.4137 62.7841 23.8058 62.3962 23.8532L61.7815 23.9209C61.371 23.9716 61.4579 24.5818 61.8503 24.5333L62.4605 24.4656ZM41.4118 48.9438C41.3513 48.9434 41.2921 48.9607 41.2415 48.9937C41.1909 49.0266 41.151 49.0737 41.127 49.1292C41.103 49.1846 41.0957 49.2459 41.1063 49.3054C41.1168 49.3649 41.1446 49.4199 41.1862 49.4637C41.215 49.4946 41.25 49.519 41.2888 49.5356C41.3277 49.5521 41.3696 49.5603 41.4118 49.5596H41.8087C42.2068 49.5596 42.2159 48.9438 41.802 48.9438H41.4118ZM43.6346 48.8874C43.2715 48.8874 43.2196 49.5032 43.6696 49.5032L44.2898 49.4637C44.7308 49.4085 44.609 48.804 44.2436 48.8502L43.6346 48.8874ZM46.057 48.6619C45.6736 48.7104 45.7266 49.3239 46.1495 49.2709L46.057 48.6619ZM48.4096 48.1431C48.332 48.1685 48.2676 48.2238 48.2307 48.2966C48.1938 48.3695 48.1874 48.454 48.2128 48.5316C48.2382 48.6093 48.2934 48.6736 48.3663 48.7105C48.4391 48.7474 48.5237 48.7539 48.6013 48.7284C48.8032 48.663 49.0028 48.5931 49.2001 48.5164C49.2713 48.4833 49.3271 48.4243 49.3562 48.3514C49.3853 48.2785 49.3854 48.1973 49.3566 48.1243C49.3278 48.0513 49.2723 47.9921 49.2013 47.9587C49.1303 47.9253 49.0492 47.9203 48.9746 47.9446C48.7908 48.0179 48.6024 48.0833 48.4107 48.1431H48.4096ZM50.4982 47.092C50.1779 47.3593 50.5828 47.824 50.885 47.5713C51.058 47.4308 51.2205 47.2778 51.3711 47.1135C51.644 46.7853 51.1546 46.4109 50.9087 46.7063C50.7813 46.8446 50.6442 46.9735 50.4982 47.092ZM51.6508 45.2211C51.5955 45.6598 52.2147 45.6936 52.2575 45.326C52.2968 45.1087 52.3209 44.889 52.3297 44.6685C52.3297 44.2444 51.7139 44.267 51.7139 44.6549C51.7068 44.8442 51.6857 45.0327 51.6508 45.2188V45.2211ZM51.4816 42.9193C51.5752 43.2926 52.1786 43.1663 52.0748 42.7546C52.0207 42.5539 51.9621 42.3453 51.8921 42.149C51.7421 41.7453 51.176 41.9889 51.3102 42.3464C51.3734 42.5336 51.4297 42.7276 51.4816 42.9193ZM50.6335 40.6638C50.7847 41.0179 51.3598 40.798 51.1974 40.4066C51.1117 40.2194 51.0215 40.0288 50.9313 39.8427C50.7057 39.4469 50.1993 39.8021 50.3775 40.1134C50.4678 40.295 50.5535 40.4799 50.6392 40.6626L50.6335 40.6638ZM49.5328 38.4781C49.7471 38.8526 50.2659 38.521 50.0775 38.1917L49.79 37.6458C49.5779 37.2725 49.0569 37.6019 49.2475 37.9345C49.3456 38.1105 49.4415 38.2977 49.5351 38.477L49.5328 38.4781ZM48.3859 36.2914C48.6114 36.6816 49.1167 36.332 48.9374 36.0162L48.6678 35.4681C48.6504 35.4318 48.626 35.3992 48.596 35.3723C48.5661 35.3453 48.5311 35.3246 48.493 35.3112C48.455 35.2977 48.4147 35.292 48.3745 35.2941C48.3342 35.2963 48.2948 35.3064 48.2585 35.3238C48.2221 35.3412 48.1895 35.3656 48.1626 35.3955C48.1357 35.4255 48.1149 35.4605 48.1015 35.4986C48.0881 35.5366 48.0823 35.5769 48.0845 35.6171C48.0866 35.6574 48.0967 35.6968 48.1141 35.7331L48.3859 36.297V36.2914ZM47.3867 33.993C47.4121 34.0706 47.4673 34.1349 47.5402 34.1719C47.613 34.2088 47.6976 34.2152 47.7752 34.1898C47.8528 34.1644 47.9172 34.1091 47.9541 34.0363C47.991 33.9634 47.9974 33.8789 47.972 33.8013C47.91 33.6107 47.8592 33.4246 47.804 33.2306C47.7058 32.8393 47.107 32.9859 47.2062 33.3817C47.2593 33.5893 47.319 33.7889 47.3867 33.993ZM47.0833 31.4352C47.0337 31.8378 47.6472 31.9145 47.6946 31.5108C47.7177 31.3208 47.7528 31.1325 47.7994 30.9469C47.8987 30.5477 47.2998 30.4044 47.2017 30.7935C47.1512 31.0057 47.1136 31.2207 47.089 31.4375L47.0833 31.4352ZM48.0306 29.024C47.7904 29.3624 48.2968 29.7097 48.5291 29.3861C48.6417 29.2288 48.7634 29.0782 48.8934 28.9349C49.1719 28.5966 48.6769 28.2346 48.4423 28.5222C48.2968 28.6822 48.1612 28.8509 48.0363 29.0274L48.0306 29.024ZM49.8903 27.2681C49.8311 27.3164 49.792 27.3849 49.7805 27.4604C49.769 27.536 49.786 27.6131 49.8282 27.6767C49.8703 27.7404 49.9347 27.7862 50.0087 27.8051C50.0827 27.824 50.1611 27.8147 50.2287 27.779C50.3933 27.6662 50.567 27.5613 50.7339 27.4587C51.0722 27.2636 50.7824 26.7223 50.4193 26.9298C50.2373 27.0373 50.0591 27.1501 49.8847 27.2681H49.8903ZM52.1154 26.0862C51.7365 26.2497 51.9857 26.8125 52.3534 26.6501C52.5395 26.5711 52.7267 26.4978 52.9173 26.4245C53.2928 26.2824 53.0808 25.705 52.6917 25.8494C52.4977 25.9238 52.3026 26.0005 52.1109 26.0806L52.1154 26.0862ZM54.4758 25.2652C54.1048 25.3577 54.2255 25.9633 54.6439 25.8573L55.2303 25.696C55.616 25.6001 55.4784 24.999 55.0747 25.0994L54.4758 25.2652ZM56.8904 24.6754C56.4641 24.7825 56.6524 25.3678 57.0133 25.2776L57.6133 25.1592C57.69 25.1407 57.7566 25.0934 57.7995 25.0273C57.8423 24.9611 57.8582 24.8809 57.8437 24.8034C57.8292 24.7259 57.7856 24.6569 57.7217 24.6106C57.6579 24.5643 57.5787 24.5443 57.5005 24.5547L56.8927 24.6754H56.8904ZM59.332 24.2412C58.9475 24.2897 59.0016 24.9043 59.4222 24.8513L60.029 24.7622C60.4181 24.7148 60.3583 24.1002 59.9433 24.1521L59.332 24.2412Z" fill="#8D9FCA"/>
<path fill-rule="evenodd" clip-rule="evenodd" d="M202.816 44.1258C202.442 43.9115 202.163 44.4641 202.493 44.649C202.666 44.7618 202.831 44.8644 203.005 44.9761C203.398 45.2016 203.654 44.6378 203.343 44.4607C203.169 44.3472 202.994 44.2344 202.816 44.1224V44.1258ZM185.234 76.018C185.332 76.4059 185.931 76.2638 185.832 75.8646C185.781 75.6695 185.735 75.4744 185.692 75.277C185.587 74.8586 184.997 75.0379 185.089 75.4067C185.135 75.6108 185.182 75.815 185.234 76.018ZM184.831 73.5301C184.831 73.8966 185.445 73.9429 185.445 73.4985C185.435 73.2989 185.428 73.0993 185.428 72.8997C185.428 72.4914 184.812 72.4948 184.812 72.8997C184.812 73.1117 184.819 73.3215 184.831 73.5335V73.5301ZM184.986 71.0039C184.971 71.0839 184.989 71.1666 185.035 71.2337C185.081 71.3009 185.151 71.347 185.231 71.362C185.311 71.3769 185.394 71.3595 185.461 71.3135C185.528 71.2675 185.575 71.1967 185.59 71.1167C185.627 70.9227 185.671 70.7265 185.72 70.5359C185.823 70.1299 185.221 69.9968 185.125 70.378C185.072 70.581 185.025 70.793 184.986 71.0005V71.0039ZM185.789 68.5938C185.609 68.9096 186.116 69.2581 186.34 68.869C186.424 68.6888 186.517 68.5131 186.619 68.3424C186.824 67.9837 186.281 67.6871 186.087 68.0322C185.981 68.207 185.878 68.41 185.789 68.5961V68.5938ZM187.184 66.4793C186.916 66.8007 187.398 67.183 187.65 66.8819C187.78 66.7308 187.912 66.583 188.049 66.4387C188.328 66.1601 187.905 65.7135 187.607 66.009C187.463 66.1646 187.322 66.318 187.184 66.4793ZM189.013 64.7448C188.675 65.0245 189.1 65.4744 189.389 65.2331C189.547 65.1102 189.709 64.9895 189.873 64.8756C190.211 64.6354 189.843 64.1392 189.52 64.3715C189.348 64.4933 189.181 64.6162 189.013 64.7448ZM191.123 63.3824C190.751 63.5944 191.081 64.1155 191.413 63.9249C191.592 63.829 191.771 63.7388 191.951 63.6486C192.346 63.423 191.992 62.9178 191.679 63.096C191.491 63.1884 191.307 63.2832 191.123 63.3824ZM193.405 62.3516C193.022 62.496 193.24 63.07 193.618 62.9291L194.19 62.7249C194.594 62.5749 194.35 62.0088 193.993 62.1419C193.795 62.2095 193.6 62.2795 193.405 62.3516ZM195.791 61.6186C195.393 61.7167 195.547 62.3144 195.938 62.2152L196.529 62.0799C196.948 61.975 196.768 61.3851 196.4 61.4765L195.791 61.6186ZM198.244 61.1562C197.846 61.2058 197.916 61.8182 198.323 61.7675L198.927 61.6953C199.346 61.6434 199.25 61.0344 198.863 61.0829C198.656 61.1055 198.451 61.1291 198.244 61.1562ZM200.725 60.9566C200.645 60.9625 200.57 61 200.516 61.0608C200.463 61.1216 200.436 61.201 200.441 61.2817C200.445 61.3624 200.482 61.438 200.542 61.4922C200.602 61.5464 200.681 61.5748 200.761 61.5712C200.968 61.56 201.174 61.5475 201.382 61.5306C201.82 61.4765 201.701 60.8709 201.334 60.9171L200.725 60.9566ZM203.156 60.731C202.759 60.7807 202.829 61.3919 203.236 61.3412C203.443 61.3152 203.647 61.2848 203.853 61.2543C204.235 61.207 204.181 60.5935 203.759 60.6465C203.558 60.6758 203.358 60.7051 203.156 60.731ZM205.543 60.2991C205.151 60.3972 205.3 60.9949 205.694 60.8957C205.897 60.8461 206.1 60.7953 206.301 60.7367C206.665 60.6465 206.55 60.0408 206.128 60.1469C205.939 60.2032 205.737 60.2517 205.543 60.2991ZM207.827 59.5412C207.468 59.6935 207.693 60.2675 208.08 60.1051C208.275 60.0172 208.464 59.9224 208.655 59.8232C209.017 59.6157 208.699 59.0879 208.358 59.2841C208.195 59.3766 207.997 59.4668 207.827 59.5446V59.5412ZM209.782 58.2601C209.499 58.5432 209.929 58.9841 210.221 58.692C210.377 58.5379 210.522 58.3741 210.656 58.2015C210.891 57.9195 210.449 57.4898 210.164 57.8315C210.046 57.9827 209.919 58.1259 209.782 58.2601ZM210.876 56.2944C210.786 56.6553 211.375 56.8425 211.481 56.4162C211.524 56.1996 211.552 55.9803 211.564 55.7598C211.564 55.3155 210.951 55.3617 210.951 55.7294C210.938 55.9187 210.913 56.107 210.876 56.2933V56.2944ZM210.732 54.0061C210.825 54.3749 211.429 54.2554 211.325 53.837C211.268 53.6317 211.2 53.4287 211.128 53.2291C210.985 52.8468 210.407 53.0656 210.55 53.4434C210.618 53.6272 210.68 53.8156 210.732 54.0073V54.0061ZM209.776 51.8273C209.973 52.1656 210.514 51.8758 210.308 51.516C210.223 51.3469 210.082 51.1416 209.978 50.9781C209.799 50.6646 209.239 50.9228 209.462 51.3164C209.577 51.4805 209.682 51.6515 209.776 51.8284V51.8273ZM208.395 49.8458C208.663 50.1661 209.127 49.7612 208.875 49.459C208.744 49.2966 208.61 49.1364 208.474 48.9785C208.224 48.6763 207.74 49.0586 208.007 49.3812C208.139 49.5334 208.27 49.689 208.395 49.8458ZM206.765 48.0481C207.048 48.3312 207.489 47.9004 207.198 47.6094C207.053 47.4662 206.901 47.3106 206.746 47.1764C206.477 46.9068 206.02 47.3219 206.324 47.6275C206.472 47.7673 206.618 47.9094 206.761 48.0515L206.765 48.0481ZM204.96 46.4185C205.266 46.6734 205.668 46.2065 205.349 45.9403L204.863 45.5513C204.571 45.3088 204.153 45.761 204.485 46.0385C204.642 46.1569 204.806 46.2978 204.958 46.4219L204.96 46.4185Z" fill="#8D9FCA"/>
</g>
<defs>
<clipPath id="clip0_1743_8679">
<rect width="229" height="175" fill="white" transform="translate(0 0.917969)"/>
</clipPath>
</defs>
</svg>
